<svg width="144" height="48" viewBox="0 0 144 48" fill="none" xmlns="http://www.w3.org/2000/svg">
<g clip-path="url(#clip0_80_12768)">
<path d="M17.5799 13.7901L14.8799 11.2001C15.6499 10.6301 17.5499 9.39007 20.2599 9.24007C22.7499 9.11007 24.5899 9.97007 25.2999 10.3101C26.1499 10.7201 26.9199 11.2301 27.6299 11.8401L25.5199 14.7501C25.2799 14.4901 23.0999 12.2201 20.1499 12.6701C18.9599 12.8501 18.0899 13.4001 17.5899 13.7901H17.5799Z" fill="#212529"/>
<path d="M12.47 25.6L14.8 22.83C16.58 24.36 18.61 25.3 20.99 25.3C23.02 25.3 24.06 24.37 24.06 23.19C24.06 22.89 24 22.63 23.89 22.41C23.32 21.36 21.89 21.2 20.09 20.78C19.15 20.56 17.77 20.18 16.11 19.51C17.07 18.52 18.04 17.53 19 16.54C19.5 16.67 20.35 16.9 21.4 17.17C23.89 17.8 24.38 17.86 25.22 18.31C25.95 18.7 26.92 19.23 27.56 20.37C28.11 21.35 28.14 22.29 28.14 22.76C28.14 26.35 25.43 28.74 20.82 28.74C17.56 28.74 14.65 27.64 12.46 25.62L12.47 25.6Z" fill="#212529"/>
<path d="M15.14 14.99L9.15 20.98L3.16 14.99L9.15 9L15.14 14.99ZM1.42 21.96L0 23.38L1.42 24.8L2.84 23.38L1.42 21.96Z" fill="#39939E"/>
<path d="M3.61953 16.9199L0.769531 19.7599L3.60953 22.5999L6.44953 19.7599L3.62953 16.9199H3.61953ZM7.12953 20.4299L3.14953 24.4099L7.12953 28.3899L11.1095 24.4099L7.12953 20.4299ZM11.8295 19.6999L9.84953 21.6899L11.8395 23.6799L13.8295 21.6899L11.8195 19.6999H11.8295Z" fill="#212529"/>
<path d="M81.8699 35.4199C82.0199 35.2399 82.1999 35.0999 82.4099 34.9999C82.6099 34.8899 82.8399 34.8399 83.0899 34.8399C83.3099 34.8399 83.5099 34.8799 83.6899 34.9699C83.8699 35.0599 84.0199 35.1799 84.1499 35.3399C84.2799 35.4999 84.3699 35.6999 84.4399 35.9299C84.5099 36.1599 84.5399 36.4199 84.5399 36.7099C84.5399 37.0199 84.4999 37.2999 84.4299 37.5499C84.3599 37.7999 84.2399 38.0199 84.0999 38.1999C83.9599 38.3799 83.7799 38.5199 83.5899 38.6099C83.3899 38.7099 83.1599 38.7599 82.9099 38.7599C82.7899 38.7599 82.6699 38.7599 82.5799 38.7299C82.4699 38.7099 82.3799 38.6699 82.2999 38.6199C82.2099 38.5699 82.1399 38.5199 82.0599 38.4599C81.9799 38.3999 81.9199 38.3199 81.8599 38.2399L81.8299 38.5599C81.8099 38.6699 81.7499 38.7099 81.6399 38.7099H81.1699V33.1799H81.8999V35.4199H81.8799H81.8699ZM81.8699 37.7699C81.9899 37.9199 82.1199 38.0399 82.2599 38.0999C82.3999 38.1699 82.5499 38.1899 82.7199 38.1899C83.0599 38.1899 83.3199 38.0699 83.5099 37.8199C83.6999 37.5699 83.7899 37.2099 83.7899 36.7199C83.7899 36.2599 83.7099 35.9399 83.5499 35.7299C83.3899 35.5199 83.1599 35.4099 82.8599 35.4099C82.6499 35.4099 82.4699 35.4599 82.3199 35.5499C82.1699 35.6499 82.0299 35.7799 81.8899 35.9599V37.7699H81.8699Z" fill="#202428"/>
<path d="M88.5803 34.8999L86.4703 39.8099C86.4503 39.8699 86.4203 39.9099 86.3803 39.9399C86.3403 39.9699 86.2903 39.9899 86.2203 39.9899H85.6803L86.3803 38.4699L84.8203 34.8999H85.4503C85.5203 34.8999 85.5603 34.9199 85.6003 34.9499C85.6303 34.9799 85.6603 35.0199 85.6703 35.0499L86.6403 37.3399C86.6603 37.3999 86.6803 37.4499 86.7003 37.5099C86.7203 37.5699 86.7303 37.6199 86.7503 37.6799C86.7703 37.6199 86.7803 37.5599 86.8103 37.4999C86.8303 37.4399 86.8503 37.3899 86.8803 37.3299L87.8203 35.0399C87.8203 35.0399 87.8703 34.9599 87.9003 34.9299C87.9403 34.9099 87.9803 34.8899 88.0303 34.8899H88.6103L88.5803 34.8999Z" fill="#202428"/>
<path d="M94.6096 37.43C94.6696 37.43 94.7196 37.45 94.7596 37.5L95.1596 37.93C94.9396 38.2 94.6696 38.41 94.3496 38.56C94.0296 38.71 93.6396 38.78 93.1996 38.78C92.7996 38.78 92.4396 38.71 92.1196 38.58C91.7996 38.45 91.5296 38.25 91.2996 38C91.0696 37.76 90.8996 37.46 90.7796 37.12C90.6596 36.78 90.5996 36.41 90.5996 36.01C90.5996 35.61 90.6696 35.23 90.7996 34.89C90.9396 34.55 91.1296 34.26 91.3696 34.01C91.6096 33.77 91.9096 33.57 92.2496 33.44C92.5896 33.3 92.9696 33.24 93.3796 33.24C93.7896 33.24 94.1396 33.31 94.4396 33.44C94.7396 33.57 94.9996 33.74 95.2096 33.95L94.8796 34.42C94.8796 34.42 94.8296 34.48 94.8096 34.5C94.7796 34.52 94.7396 34.53 94.6796 34.53C94.6196 34.53 94.5696 34.51 94.4996 34.46C94.4396 34.41 94.3596 34.36 94.2696 34.31C94.1796 34.26 94.0596 34.21 93.9196 34.16C93.7796 34.12 93.5996 34.09 93.3796 34.09C93.1296 34.09 92.8896 34.13 92.6796 34.22C92.4696 34.31 92.2796 34.44 92.1296 34.6C91.9796 34.76 91.8496 34.97 91.7696 35.2C91.6796 35.44 91.6396 35.7 91.6396 36C91.6396 36.31 91.6796 36.58 91.7696 36.81C91.8596 37.04 91.9696 37.25 92.1196 37.41C92.2696 37.57 92.4396 37.69 92.6396 37.78C92.8396 37.87 93.0496 37.91 93.2796 37.91C93.4196 37.91 93.5396 37.91 93.6496 37.89C93.7596 37.87 93.8596 37.85 93.9596 37.82C94.0596 37.79 94.1396 37.75 94.2296 37.7C94.3096 37.65 94.3996 37.59 94.4796 37.51C94.4996 37.49 94.5296 37.47 94.5596 37.45C94.5596 37.43 94.5796 37.42 94.6196 37.42L94.6096 37.43Z" fill="#202428"/>
<path d="M100.48 38.7H99.4604V36.33H96.9204V38.7H95.9004V33.28H96.9204V35.61H99.4604V33.28H100.48V38.7Z" fill="#202428"/>
<path d="M106.34 38.7H105.56C105.47 38.7 105.4 38.68 105.35 38.63C105.29 38.59 105.25 38.53 105.23 38.47L104.82 37.36H102.58L102.17 38.47C102.15 38.53 102.11 38.58 102.05 38.62C101.99 38.67 101.92 38.69 101.84 38.69H101.06L103.19 33.27H104.22L106.34 38.69V38.7ZM102.83 36.65H104.55L103.89 34.84C103.86 34.76 103.82 34.67 103.79 34.56C103.76 34.45 103.72 34.33 103.68 34.2C103.65 34.33 103.61 34.44 103.57 34.56C103.54 34.67 103.5 34.76 103.47 34.84L102.81 36.65H102.83Z" fill="#202428"/>
<path d="M107.94 36.79V38.7H106.93V33.28H108.7C109.07 33.28 109.38 33.32 109.64 33.41C109.91 33.5 110.12 33.61 110.3 33.77C110.48 33.93 110.6 34.1 110.68 34.31C110.76 34.52 110.8 34.76 110.8 35.01C110.8 35.26 110.76 35.51 110.67 35.73C110.58 35.95 110.45 36.14 110.28 36.29C110.1 36.44 109.89 36.57 109.62 36.66C109.36 36.75 109.05 36.79 108.7 36.79H107.94ZM107.94 36H108.7C108.89 36 109.05 35.98 109.18 35.93C109.32 35.88 109.43 35.82 109.52 35.73C109.61 35.64 109.67 35.54 109.72 35.41C109.77 35.29 109.79 35.15 109.79 35C109.79 34.85 109.77 34.72 109.72 34.61C109.67 34.5 109.61 34.39 109.52 34.31C109.43 34.23 109.32 34.16 109.18 34.12C109.04 34.08 108.88 34.05 108.7 34.05H107.94V35.99V36Z" fill="#202428"/>
<path d="M114.49 34.27C114.47 34.33 114.43 34.3599 114.39 34.3799C114.36 34.3999 114.31 34.41 114.26 34.41C114.21 34.41 114.15 34.39 114.09 34.35C114.02 34.31 113.95 34.2699 113.87 34.2199C113.79 34.1699 113.68 34.13 113.57 34.09C113.46 34.05 113.32 34.03 113.16 34.03C113.02 34.03 112.9 34.05 112.79 34.08C112.68 34.11 112.6 34.1599 112.53 34.2199C112.46 34.2799 112.41 34.35 112.37 34.44C112.34 34.52 112.32 34.6199 112.32 34.7199C112.32 34.8499 112.35 34.96 112.43 35.04C112.51 35.12 112.59 35.19 112.71 35.26C112.82 35.32 112.96 35.37 113.11 35.42C113.26 35.47 113.41 35.52 113.57 35.57C113.72 35.63 113.88 35.68 114.03 35.76C114.18 35.83 114.31 35.92 114.43 36.03C114.55 36.14 114.64 36.27 114.71 36.43C114.78 36.59 114.82 36.78 114.82 37.01C114.82 37.25 114.78 37.48 114.7 37.7C114.62 37.91 114.5 38.1 114.33 38.26C114.16 38.42 113.97 38.5399 113.74 38.6299C113.51 38.7199 113.24 38.77 112.94 38.77C112.77 38.77 112.6 38.7499 112.43 38.7199C112.26 38.6899 112.1 38.64 111.95 38.57C111.8 38.4999 111.65 38.43 111.52 38.34C111.39 38.25 111.27 38.1499 111.16 38.0499L111.45 37.57C111.45 37.57 111.51 37.4999 111.55 37.4799C111.59 37.4599 111.63 37.45 111.68 37.45C111.75 37.45 111.81 37.47 111.88 37.52C111.95 37.57 112.03 37.63 112.14 37.69C112.24 37.76 112.35 37.81 112.49 37.86C112.62 37.91 112.78 37.93 112.97 37.93C113.25 37.93 113.48 37.86 113.64 37.7299C113.79 37.59 113.88 37.4 113.88 37.1399C113.88 36.9999 113.85 36.88 113.77 36.79C113.7 36.7 113.61 36.6299 113.49 36.5599C113.38 36.4899 113.24 36.45 113.09 36.41C112.94 36.37 112.79 36.32 112.63 36.27C112.47 36.22 112.32 36.16 112.17 36.09C112.02 36.02 111.89 35.9299 111.77 35.8099C111.65 35.6899 111.56 35.5599 111.49 35.3899C111.42 35.2199 111.38 35.02 111.38 34.76C111.38 34.56 111.42 34.37 111.5 34.18C111.58 33.99 111.7 33.83 111.84 33.68C111.99 33.53 112.17 33.42 112.39 33.33C112.61 33.24 112.86 33.2 113.15 33.2C113.47 33.2 113.77 33.25 114.04 33.35C114.31 33.45 114.54 33.59 114.73 33.77L114.49 34.24V34.27Z" fill="#202428"/>
<path d="M115.07 33.28H115.88C115.97 33.28 116.04 33.3 116.09 33.35C116.15 33.39 116.19 33.45 116.21 33.51L117.49 36.82C117.53 36.93 117.57 37.05 117.61 37.18C117.65 37.31 117.68 37.44 117.72 37.59C117.78 37.31 117.85 37.05 117.93 36.83L119.2 33.52C119.22 33.46 119.27 33.41 119.32 33.37C119.38 33.32 119.45 33.3 119.53 33.3H120.34L118.15 38.72H117.24L115.05 33.3L115.07 33.28Z" fill="#202428"/>
<path d="M122.07 38.7H121.06V33.28H122.07V38.7Z" fill="#202428"/>
<path d="M126.19 34.27C126.17 34.33 126.13 34.3599 126.09 34.3799C126.06 34.3999 126.01 34.41 125.96 34.41C125.91 34.41 125.85 34.39 125.79 34.35C125.72 34.31 125.65 34.2699 125.57 34.2199C125.49 34.1699 125.38 34.13 125.27 34.09C125.16 34.05 125.02 34.03 124.86 34.03C124.72 34.03 124.6 34.05 124.49 34.08C124.38 34.11 124.3 34.1599 124.23 34.2199C124.16 34.2799 124.11 34.35 124.07 34.44C124.04 34.52 124.02 34.6199 124.02 34.7199C124.02 34.8499 124.05 34.96 124.13 35.04C124.21 35.12 124.29 35.19 124.41 35.26C124.52 35.32 124.66 35.37 124.81 35.42C124.96 35.47 125.11 35.52 125.27 35.57C125.42 35.63 125.58 35.68 125.73 35.76C125.88 35.83 126.01 35.92 126.13 36.03C126.25 36.14 126.34 36.27 126.41 36.43C126.48 36.59 126.52 36.78 126.52 37.01C126.52 37.25 126.48 37.48 126.4 37.7C126.32 37.91 126.2 38.1 126.03 38.26C125.86 38.42 125.67 38.5399 125.44 38.6299C125.21 38.7199 124.94 38.77 124.64 38.77C124.47 38.77 124.3 38.7499 124.13 38.7199C123.96 38.6899 123.8 38.64 123.65 38.57C123.5 38.4999 123.35 38.43 123.22 38.34C123.09 38.25 122.97 38.1499 122.86 38.0499L123.15 37.57C123.15 37.57 123.22 37.4999 123.25 37.4799C123.29 37.4599 123.33 37.45 123.38 37.45C123.45 37.45 123.51 37.47 123.58 37.52C123.65 37.57 123.73 37.63 123.84 37.69C123.94 37.76 124.05 37.81 124.19 37.86C124.32 37.91 124.48 37.93 124.67 37.93C124.95 37.93 125.18 37.86 125.34 37.7299C125.49 37.59 125.58 37.4 125.58 37.1399C125.58 36.9999 125.55 36.88 125.47 36.79C125.4 36.7 125.31 36.6299 125.19 36.5599C125.08 36.4899 124.94 36.45 124.79 36.41C124.64 36.37 124.49 36.32 124.33 36.27C124.17 36.22 124.02 36.16 123.87 36.09C123.72 36.02 123.59 35.9299 123.47 35.8099C123.35 35.6899 123.26 35.5599 123.19 35.3899C123.12 35.2199 123.08 35.02 123.08 34.76C123.08 34.56 123.12 34.37 123.19 34.18C123.27 33.99 123.39 33.83 123.53 33.68C123.68 33.53 123.86 33.42 124.08 33.33C124.3 33.24 124.55 33.2 124.84 33.2C125.16 33.2 125.46 33.25 125.73 33.35C126 33.45 126.23 33.59 126.42 33.77L126.18 34.24L126.19 34.27Z" fill="#202428"/>
<path d="M128.44 38.7H127.43V33.28H128.44V38.7Z" fill="#202428"/>
<path d="M134.86 35.99C134.86 36.39 134.79 36.75 134.66 37.1C134.53 37.45 134.34 37.73 134.1 37.98C133.86 38.23 133.57 38.42 133.23 38.56C132.9 38.7 132.52 38.77 132.11 38.77C131.7 38.77 131.33 38.7 130.99 38.56C130.65 38.42 130.36 38.23 130.12 37.98C129.88 37.73 129.69 37.44 129.56 37.1C129.43 36.76 129.36 36.39 129.36 35.99C129.36 35.59 129.43 35.23 129.56 34.88C129.69 34.53 129.88 34.25 130.12 34C130.36 33.75 130.65 33.56 130.99 33.42C131.33 33.28 131.71 33.21 132.11 33.21C132.51 33.21 132.89 33.28 133.23 33.42C133.56 33.56 133.86 33.75 134.1 34C134.34 34.24 134.52 34.54 134.66 34.88C134.79 35.22 134.86 35.59 134.86 35.99ZM133.83 35.99C133.83 35.69 133.79 35.43 133.71 35.19C133.63 34.95 133.51 34.75 133.37 34.59C133.22 34.43 133.04 34.3 132.83 34.21C132.62 34.12 132.38 34.08 132.11 34.08C131.84 34.08 131.61 34.12 131.39 34.21C131.18 34.3 131 34.42 130.85 34.59C130.7 34.75 130.59 34.96 130.51 35.19C130.43 35.42 130.39 35.69 130.39 35.99C130.39 36.29 130.43 36.55 130.51 36.79C130.59 37.03 130.71 37.23 130.85 37.39C131 37.55 131.18 37.68 131.39 37.76C131.6 37.85 131.84 37.89 132.11 37.89C132.38 37.89 132.61 37.85 132.83 37.76C133.04 37.67 133.22 37.55 133.37 37.39C133.52 37.23 133.63 37.02 133.71 36.79C133.79 36.56 133.83 36.29 133.83 35.99Z" fill="#202428"/>
<path d="M136.3 33.29C136.3 33.29 136.36 33.29 136.38 33.31C136.4 33.31 136.43 33.33 136.45 33.36C136.47 33.38 136.5 33.41 136.52 33.44L139.37 37.07C139.37 36.98 139.35 36.9 139.35 36.81C139.35 36.73 139.35 36.65 139.35 36.57V33.28H140.24V38.7H139.72C139.64 38.7 139.57 38.68 139.52 38.66C139.47 38.64 139.41 38.59 139.37 38.52L136.54 34.91C136.54 34.99 136.56 35.07 136.56 35.15C136.56 35.23 136.56 35.3 136.56 35.36V38.69H135.67V33.27H136.2C136.2 33.27 136.28 33.29 136.31 33.29H136.3Z" fill="#202428"/>
<path d="M36.8999 21.58L29.6299 9.70996H34.2799L38.8999 17.85L43.7099 9.70996H48.1699L40.9299 21.58V28.28H36.8999V21.58Z" fill="#212529"/>
<path d="M48.9004 25.5299L51.2004 22.7999C52.9604 24.3099 54.9604 25.2299 57.3104 25.2299C59.3104 25.2299 60.3404 24.3099 60.3404 23.1499C60.3404 21.8299 59.2604 21.4199 56.4204 20.7699C52.5004 19.8799 49.7204 18.7699 49.7204 15.1699C49.7204 11.5699 52.5304 9.38989 56.5804 9.38989C59.6104 9.38989 61.9604 10.3399 63.8504 11.9599L61.7704 14.8299C60.1204 13.5099 58.2604 12.7799 56.4704 12.7799C54.6804 12.7799 53.7404 13.6699 53.7404 14.7799C53.7404 16.1299 54.8504 16.5599 57.7104 17.2099C61.7104 18.0999 64.3604 19.2899 64.3604 22.7199C64.3604 26.1499 61.6804 28.6099 57.1404 28.6099C53.9204 28.6099 51.0604 27.5299 48.9004 25.5299Z" fill="#212529"/>
<path d="M72.04 13.31H66.25V9.70996H81.82V13.31H76.03V28.29H72.03V13.31H72.04Z" fill="#212529"/>
<path d="M95.6698 28.28L91.4298 22.25H88.4798V28.28H84.5098V9.70996H92.8598C96.8898 9.70996 99.8598 12.31 99.8598 15.98C99.8598 18.74 98.1798 20.9 95.6398 21.79L100.21 28.28H95.6698ZM88.4798 18.6H92.4298C94.3998 18.6 95.7498 17.57 95.7498 15.98C95.7498 14.39 94.3998 13.36 92.4298 13.36H88.4798V18.6Z" fill="#212529"/>
<path d="M115.27 25.36H107L105.81 28.28H101.35L108.91 9.70996H113.37L120.94 28.28H116.45L115.26 25.36H115.27ZM113.89 21.98L111.13 15.2L108.37 21.98H113.88H113.89Z" fill="#212529"/>
<path d="M123.29 9.70996H127.26L136.21 21.71V9.70996H140.21V28.28H136.21L127.26 16.28V28.28H123.29V9.70996Z" fill="#212529"/>
</g>
<defs>
<clipPath id="clip0_80_12768">
<rect width="140.22" height="30.99" fill="white" transform="translate(0 9)"/>
</clipPath>
</defs>
</svg>
